# xmcd
#
# Track frame offsets:
#	150
#	17686
#	38802
#	54982
#	73731
#	92523
#	110267
#	130673
#	144399
#	160123
#	187225
#	211178
#	230259
#	243363
#	269521
#	294705
#	312361
#	333000
#
# Disc length: 4715 seconds
#
# Revision: 1
# Processed by: cddbd v1.5.2PL0 Copyright (c) Steve Scherf et al.
# Submitted via: audiograbber 1.83.01
#
DISCID=fa126912
DTITLE=DJ GK - Infinitely feelings... and now I'm back on the road again
DYEAR=1900
DGENRE=Soul 'n Blues
TTITLE0=Johnny Lang - Missing your love
TTITLE1=Shania Twain and Bryan Adams - From this moment
TTITLE2=Linda Ronstadt and Aaron Neville - I don't know much
TTITLE3=Bill Withers - Ain't no sunshine
TTITLE4=Johnny Lang - Lie to me
TTITLE5=Crowded House - Don't dream it's over
TTITLE6=R. Kelly - The storm is over now
TTITLE7=Whoopie Goldberg and the Cast - Ain't no mountain high enough
TTITLE8=Eddy Floyd, Wilson Picket and Johnny Lang - 634-56789
TTITLE9=Elton John, Tina Turner and Cher - Proud Mary
TTITLE10=Soul Family - You've got love
TTITLE11=Rod Steward and Tina Turner - It takes two
TTITLE12=Gary Moore - Walking by myself
TTITLE13=BAP - Verdamp lang her
TTITLE14=BAP - Ne schöne Jrooss
TTITLE15=Klaus Lage - Mit meinen Augen
TTITLE16=Klaus Lage - 1000 und 1 Nacht (Zoom!)
TTITLE17=Klaus Lage - Ich hab' Dich lieb
EXTD=
EXTT0=
EXTT1=
EXTT2=
EXTT3=
EXTT4=
EXTT5=
EXTT6=
EXTT7=
EXTT8=
EXTT9=
EXTT10=
EXTT11=
EXTT12=
EXTT13=
EXTT14=
EXTT15=
EXTT16=
EXTT17=
PLAYORDER=
